name rise31.4854peak64.571fall78.6902.mot
datacolumns 19
datarows 35
range 14.88161100000000 14.93828300000000
endheader
time	ground_force1_vx	ground_force1_vy	ground_force1_vz	ground_force1_px	ground_force1_py	ground_force1_pz	ground_force2_vx	ground_force2_vy	ground_force2_vz	ground_force2_px	ground_force2_py	ground_force2_pz	ground_torque1_x	ground_torque1_y	ground_torque1_z	ground_torque2_x	ground_torque2_y	ground_torque2_z	
14.88161100000000	-45.44623200000000	783.80129699999998	58.04111600000000	0.12175900000000	0.00000000000000	0.08485700000000	-5.88151600000000	57.01890700000000	6.70062700000000	0.33457900000000	0.00000000000000	-0.11047600000000	0.00000000000000	23.31017700000000	0.00000000000000	0.00000000000000	3.49749400000000	0.00000000000000	
14.88327700000000	-45.67698100000000	782.01950299999999	57.88052800000000	0.12104700000000	0.00000000000000	0.08477400000000	-6.12951900000000	64.26660400000000	7.28327100000000	0.34034100000000	0.00000000000000	-0.11080800000000	0.00000000000000	23.15750500000000	0.00000000000000	0.00000000000000	3.92094500000000	0.00000000000000	
14.88494500000000	-45.90589800000000	780.11486500000001	57.69499500000000	0.12036100000000	0.00000000000000	0.08468500000000	-6.25066300000000	71.40442200000000	7.78901900000000	0.34571000000000	0.00000000000000	-0.11110800000000	0.00000000000000	23.00150100000000	0.00000000000000	0.00000000000000	4.32502700000000	0.00000000000000	
14.88661500000000	-46.13337400000000	778.08576000000005	57.48415900000000	0.11970200000000	0.00000000000000	0.08459000000000	-6.24141700000000	78.38441500000000	8.21228800000000	0.35073500000000	0.00000000000000	-0.11138200000000	0.00000000000000	22.84238800000000	0.00000000000000	0.00000000000000	4.70496600000000	0.00000000000000	
14.88827900000000	-46.35980800000000	775.93064600000002	57.24770500000000	0.11907000000000	0.00000000000000	0.08448900000000	-6.10332100000000	85.18434900000000	8.55175400000000	0.35545300000000	0.00000000000000	-0.11163300000000	0.00000000000000	22.68038600000000	0.00000000000000	0.00000000000000	5.05794700000000	0.00000000000000	
14.88994300000000	-46.58559900000000	773.64806599999997	56.98536400000000	0.11846500000000	0.00000000000000	0.08438200000000	-5.84214500000000	91.80533100000000	8.80976700000000	0.35989700000000	0.00000000000000	-0.11186700000000	0.00000000000000	22.51570500000000	0.00000000000000	0.00000000000000	5.38297100000000	0.00000000000000	
14.89160900000000	-46.81114600000000	771.23664399999996	56.69691300000000	0.11788900000000	0.00000000000000	0.08426800000000	-5.46685000000000	98.26793800000000	8.99157600000000	0.36409200000000	0.00000000000000	-0.11208500000000	0.00000000000000	22.34854700000000	0.00000000000000	0.00000000000000	5.68058600000000	0.00000000000000	
14.89328100000000	-47.03684500000000	768.69508499999995	56.38217600000000	0.11734100000000	0.00000000000000	0.08414800000000	-4.98847400000000	104.60742300000000	9.10443500000000	0.36806100000000	0.00000000000000	-0.11229000000000	0.00000000000000	22.17910700000000	0.00000000000000	0.00000000000000	5.95253700000000	0.00000000000000	
14.89495000000000	-47.26308600000000	766.02217499999995	56.04103000000000	0.11682100000000	0.00000000000000	0.08402200000000	-4.41903900000000	110.86855100000000	9.15671800000000	0.37182100000000	0.00000000000000	-0.11248500000000	0.00000000000000	22.00756900000000	0.00000000000000	0.00000000000000	6.20136700000000	0.00000000000000	
14.89661300000000	-47.49025100000000	763.21678099999997	55.67339800000000	0.11633000000000	0.00000000000000	0.08389000000000	-3.77057900000000	117.10055199999999	9.15708200000000	0.37538900000000	0.00000000000000	-0.11267200000000	0.00000000000000	21.83410900000000	0.00000000000000	0.00000000000000	6.43003000000000	0.00000000000000	
14.89827900000000	-47.71870700000000	760.27784499999996	55.27925900000000	0.11586800000000	0.00000000000000	0.08375000000000	-3.05432300000000	123.35258200000000	9.11376000000000	0.37877700000000	0.00000000000000	-0.11285200000000	0.00000000000000	21.65889000000000	0.00000000000000	0.00000000000000	6.64153200000000	0.00000000000000	
14.89994100000000	-47.94880800000000	757.20439099999999	54.85864500000000	0.11543300000000	0.00000000000000	0.08360500000000	-2.28009600000000	129.66994399999999	9.03400800000000	0.38199600000000	0.00000000000000	-0.11302700000000	0.00000000000000	21.48206500000000	0.00000000000000	0.00000000000000	6.83862500000000	0.00000000000000	
14.90161500000000	-48.18088700000000	753.99551499999995	54.41163800000000	0.11502600000000	0.00000000000000	0.08345200000000	-1.45593200000000	136.09125000000000	8.92371600000000	0.38505500000000	0.00000000000000	-0.11319800000000	0.00000000000000	21.30377600000000	0.00000000000000	0.00000000000000	7.02358100000000	0.00000000000000	
14.90327800000000	-48.41525400000000	750.65039200000001	53.93837800000000	0.11464600000000	0.00000000000000	0.08329400000000	-0.58788600000000	142.64655500000001	8.78720300000000	0.38796400000000	0.00000000000000	-0.11336600000000	0.00000000000000	21.12415200000000	0.00000000000000	0.00000000000000	7.19803200000000	0.00000000000000	
14.90494800000000	-48.65219100000000	747.16826900000001	53.43906000000000	0.11429300000000	0.00000000000000	0.08312900000000	0.31995500000000	149.35644099999999	8.62715300000000	0.39072800000000	0.00000000000000	-0.11353100000000	0.00000000000000	20.94331200000000	0.00000000000000	0.00000000000000	7.36290300000000	0.00000000000000	
14.90661300000000	-48.89195100000000	743.54846499999996	52.91393200000000	0.11396500000000	0.00000000000000	0.08295700000000	1.26532300000000	156.23194500000000	8.44470200000000	0.39335400000000	0.00000000000000	-0.11369500000000	0.00000000000000	20.76136200000000	0.00000000000000	0.00000000000000	7.51839400000000	0.00000000000000	
14.90828000000000	-49.13475200000000	739.79037100000005	52.36329900000000	0.11366200000000	0.00000000000000	0.08277900000000	2.24750200000000	163.27518699999999	8.23961000000000	0.39584700000000	0.00000000000000	-0.11385800000000	0.00000000000000	20.57839600000000	0.00000000000000	0.00000000000000	7.66404300000000	0.00000000000000	
14.90994700000000	-49.38077200000000	735.89344800000003	51.78752100000000	0.11338300000000	0.00000000000000	0.08259600000000	3.26699000000000	170.48051100000001	8.01052000000000	0.39821100000000	0.00000000000000	-0.11402100000000	0.00000000000000	20.39449800000000	0.00000000000000	0.00000000000000	7.79881200000000	0.00000000000000	
14.91161700000000	-49.63014800000000	731.85722599999997	51.18701200000000	0.11312600000000	0.00000000000000	0.08240600000000	4.32513000000000	177.83597100000000	7.75524600000000	0.40045100000000	0.00000000000000	-0.11418500000000	0.00000000000000	20.20973700000000	0.00000000000000	0.00000000000000	7.92121600000000	0.00000000000000	
14.91327800000000	-49.88296900000000	727.68130199999996	50.56224100000000	0.11289100000000	0.00000000000000	0.08221000000000	5.42373800000000	185.32498600000000	7.47107400000000	0.40257000000000	0.00000000000000	-0.11434900000000	0.00000000000000	20.02417500000000	0.00000000000000	0.00000000000000	8.02946300000000	0.00000000000000	
14.91494600000000	-50.13927500000000	723.36533799999995	49.91373300000000	0.11267500000000	0.00000000000000	0.08200800000000	6.56476400000000	192.92800000000000	7.15505600000000	0.40457200000000	0.00000000000000	-0.11451500000000	0.00000000000000	19.83786100000000	0.00000000000000	0.00000000000000	8.12159400000000	0.00000000000000	
14.91661500000000	-50.39905200000000	718.90906399999994	49.24206100000000	0.11247800000000	0.00000000000000	0.08180000000000	7.74999700000000	200.62403900000001	6.80426300000000	0.40645800000000	0.00000000000000	-0.11468200000000	0.00000000000000	19.65083400000000	0.00000000000000	0.00000000000000	8.19561600000000	0.00000000000000	
14.91828300000000	-50.66222800000000	714.31227200000001	48.54785500000000	0.11229700000000	0.00000000000000	0.08158800000000	8.98083100000000	208.39206300000001	6.41600300000000	0.40823200000000	0.00000000000000	-0.11485100000000	0.00000000000000	19.46312200000000	0.00000000000000	0.00000000000000	8.24961900000000	0.00000000000000	
14.91994500000000	-50.92867200000000	709.57482000000005	47.83179200000000	0.11213100000000	0.00000000000000	0.08137000000000	10.25810000000000	216.21205499999999	5.98797500000000	0.40989500000000	0.00000000000000	-0.11502100000000	0.00000000000000	19.27474800000000	0.00000000000000	0.00000000000000	8.28186500000000	0.00000000000000	
14.92161200000000	-51.19818900000000	704.69663200000002	47.09460000000000	0.11197900000000	0.00000000000000	0.08114600000000	11.58197800000000	224.06582100000000	5.51838700000000	0.41145000000000	0.00000000000000	-0.11519500000000	0.00000000000000	19.08572100000000	0.00000000000000	0.00000000000000	8.29086200000000	0.00000000000000	
14.92328200000000	-51.47051800000000	699.67769299999998	46.33705400000000	0.11183800000000	0.00000000000000	0.08091900000000	12.95194100000000	231.93749900000000	5.00600600000000	0.41289800000000	0.00000000000000	-0.11537000000000	0.00000000000000	18.89604600000000	0.00000000000000	0.00000000000000	8.27540400000000	0.00000000000000	
14.92494600000000	-51.74533000000000	694.51805999999999	45.55997300000000	0.11170600000000	0.00000000000000	0.08068600000000	14.36677600000000	239.81379699999999	4.45017700000000	0.41424100000000	0.00000000000000	-0.11554800000000	0.00000000000000	18.70572100000000	0.00000000000000	0.00000000000000	8.23459400000000	0.00000000000000	
14.92661100000000	-52.02222400000000	689.21785399999999	44.76422300000000	0.11158100000000	0.00000000000000	0.08044900000000	15.82464100000000	247.68400099999999	3.85079600000000	0.41548100000000	0.00000000000000	-0.11572900000000	0.00000000000000	18.51473400000000	0.00000000000000	0.00000000000000	8.16784200000000	0.00000000000000	
14.92828100000000	-52.30073000000000	683.77727100000004	43.95070800000000	0.11146200000000	0.00000000000000	0.08020800000000	17.32314500000000	255.53979699999999	3.20825900000000	0.41661800000000	0.00000000000000	-0.11591200000000	0.00000000000000	18.32307200000000	0.00000000000000	0.00000000000000	8.07484900000000	0.00000000000000	
14.92994800000000	-52.58030300000000	678.19658100000004	43.12037300000000	0.11134600000000	0.00000000000000	0.07996300000000	18.85945300000000	263.37496199999998	2.52339700000000	0.41765500000000	0.00000000000000	-0.11609800000000	0.00000000000000	18.13071300000000	0.00000000000000	0.00000000000000	7.95558300000000	0.00000000000000	
14.93161000000000	-52.86032300000000	672.47613500000000	42.27420000000000	0.11123000000000	0.00000000000000	0.07971500000000	20.43039500000000	271.18497200000002	1.79739000000000	0.41859300000000	0.00000000000000	-0.11628600000000	0.00000000000000	17.93763500000000	0.00000000000000	0.00000000000000	7.81023800000000	0.00000000000000	
14.93327400000000	-53.14009800000000	666.61636899999996	41.41320400000000	0.11111300000000	0.00000000000000	0.07946400000000	22.03257400000000	278.96657299999998	1.03168900000000	0.41943300000000	0.00000000000000	-0.11647700000000	0.00000000000000	17.74381000000000	0.00000000000000	0.00000000000000	7.63920400000000	0.00000000000000	
14.93495000000000	-53.41885900000000	660.61780999999996	40.53843200000000	0.11099300000000	0.00000000000000	0.07920900000000	23.66246300000000	286.71736499999997	0.22794300000000	0.42017500000000	0.00000000000000	-0.11667100000000	0.00000000000000	17.54920600000000	0.00000000000000	0.00000000000000	7.44302300000000	0.00000000000000	
14.93661600000000	-53.69576600000000	654.48108600000000	39.65095800000000	0.11086600000000	0.00000000000000	0.07895200000000	25.31649100000000	294.43542200000002	-0.61207400000000	0.42082300000000	0.00000000000000	-0.11686700000000	0.00000000000000	17.35379300000000	0.00000000000000	0.00000000000000	7.22235800000000	0.00000000000000	
14.93828300000000	-53.96990200000000	648.20692699999995	38.75188600000000	0.11073100000000	0.00000000000000	0.07869200000000	26.99111300000000	302.11896500000000	-1.48651600000000	0.42137600000000	0.00000000000000	-0.11706600000000	0.00000000000000	17.15753500000000	0.00000000000000	0.00000000000000	6.97796300000000	0.00000000000000	
